# xmcd
#
# Track frame offsets: 
#        150
#        20732
#        44442
#        61582
#        83882
#        104947
#        121670
#        139047
#        154502
#        174375
#        193667
#        212142
#
# Disc length: 3015 seconds
#
# Revision: 1
# Processed by: cddbd v1.5.2PL0 Copyright (c) Steve Scherf et al.
# Submitted via: ExactAudioCopyFreeDBPlugin 1.0
#
DISCID=a20bc50c
DTITLE=Indüstri - The Sea
DYEAR=1992
DGENRE=Rock
TTITLE0=The Sea
TTITLE1=History
TTITLE2=Revolution
TTITLE3=Rom
TTITLE4=Life
TTITLE5=Millions
TTITLE6=Time
TTITLE7=Fanfare
TTITLE8=Plese Forgive
TTITLE9=One World
TTITLE10=My Idea
TTITLE11=Hold On
EXTD=
EXTT0=
EXTT1=
EXTT2=
EXTT3=
EXTT4=
EXTT5=
EXTT6=
EXTT7=
EXTT8=
EXTT9=
EXTT10=
EXTT11=
PLAYORDER=
